<?xml version="1.0" encoding="UTF-8"?>
<svg xmlns="http://www.w3.org/2000/svg" xmlns:xlink="http://www.w3.org/1999/xlink" width="100px" height="100px" viewBox="0 0 100 100" version="1.1">
<defs>
<clipPath id="clip1">
  <path d="M 0.09375 0 L 99.90625 0 L 99.90625 99.808594 L 0.09375 99.808594 Z M 0.09375 0 "/>
</clipPath>
<clipPath id="clip2">
  <path d="M 50 0 C 22.4375 0 0.09375 22.34375 0.09375 49.90625 C 0.09375 77.464844 22.4375 99.808594 50 99.808594 C 77.5625 99.808594 99.90625 77.464844 99.90625 49.90625 C 99.90625 22.34375 77.5625 0 50 0 "/>
</clipPath>
<linearGradient id="linear0" gradientUnits="userSpaceOnUse" x1="-18.029618" y1="25.748961" x2="274.029592" y2="230.251034" gradientTransform="matrix(0.389882,0,0,0.389882,0.095057,0.00000380229)">
<stop offset="0" style="stop-color:rgb(5.882353%,56.862745%,98.823529%);stop-opacity:1;"/>
<stop offset="0.0625" style="stop-color:rgb(5.882353%,56.862745%,98.823529%);stop-opacity:1;"/>
<stop offset="0.125" style="stop-color:rgb(5.490196%,56.470588%,98.431373%);stop-opacity:1;"/>
<stop offset="0.1875" style="stop-color:rgb(5.098039%,56.078431%,98.039216%);stop-opacity:1;"/>
<stop offset="0.25" style="stop-color:rgb(4.705882%,55.686275%,97.647059%);stop-opacity:1;"/>
<stop offset="0.3125" style="stop-color:rgb(4.313725%,55.294118%,97.254902%);stop-opacity:1;"/>
<stop offset="0.375" style="stop-color:rgb(4.313725%,55.294118%,96.862745%);stop-opacity:1;"/>
<stop offset="0.411837" style="stop-color:rgb(3.921569%,54.901961%,96.862745%);stop-opacity:1;"/>
<stop offset="0.4375" style="stop-color:rgb(3.529412%,54.509804%,96.470588%);stop-opacity:1;"/>
<stop offset="0.5" style="stop-color:rgb(3.529412%,54.509804%,96.470588%);stop-opacity:1;"/>
<stop offset="0.5625" style="stop-color:rgb(3.137255%,54.117647%,96.078431%);stop-opacity:1;"/>
<stop offset="0.588163" style="stop-color:rgb(2.745098%,53.72549%,95.686275%);stop-opacity:1;"/>
<stop offset="0.625" style="stop-color:rgb(2.745098%,53.72549%,95.686275%);stop-opacity:1;"/>
<stop offset="0.6875" style="stop-color:rgb(2.745098%,53.72549%,95.294118%);stop-opacity:1;"/>
<stop offset="0.75" style="stop-color:rgb(2.352941%,53.333333%,95.294118%);stop-opacity:1;"/>
<stop offset="0.8125" style="stop-color:rgb(1.960784%,52.941176%,94.901961%);stop-opacity:1;"/>
<stop offset="0.875" style="stop-color:rgb(1.568627%,52.54902%,94.509804%);stop-opacity:1;"/>
<stop offset="0.9375" style="stop-color:rgb(1.176471%,52.156863%,94.117647%);stop-opacity:1;"/>
<stop offset="1" style="stop-color:rgb(0.784314%,51.764706%,93.72549%);stop-opacity:1;"/>
</linearGradient>
<clipPath id="clip3">
  <path d="M 3.542969 3.660156 L 96.082031 3.660156 L 96.082031 96.199219 L 3.542969 96.199219 Z M 3.542969 3.660156 "/>
</clipPath>
<clipPath id="clip4">
  <path d="M 38.210938 42.855469 L 40.953125 42.855469 L 40.953125 45.714844 L 38.210938 45.714844 Z M 38.210938 42.855469 "/>
</clipPath>
<clipPath id="clip5">
  <path d="M 48.382812 40.601562 L 51.238281 40.601562 L 51.238281 43.429688 L 48.382812 43.429688 Z M 48.382812 40.601562 "/>
</clipPath>
<clipPath id="clip6">
  <path d="M 58.476562 42.855469 L 61.308594 42.855469 L 61.308594 45.714844 L 58.476562 45.714844 Z M 58.476562 42.855469 "/>
</clipPath>
<clipPath id="clip7">
  <path d="M 40 55.429688 L 59.617188 55.429688 L 59.617188 59.136719 L 40 59.136719 Z M 40 55.429688 "/>
</clipPath>
</defs>
<g id="surface1">
<g clip-path="url(#clip1)" clip-rule="nonzero">
<g clip-path="url(#clip2)" clip-rule="nonzero">
<path style=" stroke:none;fill-rule:nonzero;fill:url(#linear0);" d="M 0.09375 0 L 0.09375 99.808594 L 99.90625 99.808594 L 99.90625 0 Z M 0.09375 0 "/>
</g>
</g>
<g clip-path="url(#clip3)" clip-rule="nonzero">
<path style=" stroke:none;fill-rule:nonzero;fill:rgb(100%,100%,100%);fill-opacity:1;" d="M 49.8125 96.199219 C 24.25 96.199219 3.542969 75.351562 3.542969 49.929688 C 3.542969 24.511719 24.25 3.660156 49.8125 3.660156 C 75.375 3.660156 96.082031 24.367188 96.082031 49.929688 C 96.082031 75.492188 75.230469 96.199219 49.8125 96.199219 Z M 49.8125 6.519531 C 25.820312 6.519531 6.398438 25.9375 6.398438 49.929688 C 6.398438 73.921875 25.820312 93.34375 49.8125 93.34375 C 73.804688 93.34375 93.226562 73.921875 93.226562 49.929688 C 93.226562 25.9375 73.660156 6.519531 49.8125 6.519531 Z M 49.8125 6.519531 "/>
</g>
<path style=" stroke:none;fill-rule:nonzero;fill:rgb(100%,100%,100%);fill-opacity:1;" d="M 49.757812 49.832031 L 48.363281 51.226562 L 49.757812 52.621094 L 51.15625 51.226562 Z M 49.757812 49.832031 L 48.363281 51.226562 L 49.757812 52.621094 L 51.15625 51.226562 Z M 59.054688 44.699219 L 54.902344 50.589844 L 50.585938 42.542969 C 50.363281 42.128906 49.109375 42.214844 48.933594 42.542969 L 44.613281 50.589844 L 40.460938 44.699219 C 40.164062 44.273438 39.21875 44.695312 39.324219 45.195312 L 41.316406 54.617188 L 58.199219 54.617188 L 60.195312 45.195312 C 60.300781 44.695312 59.351562 44.273438 59.054688 44.699219 Z M 52.117188 51.546875 L 50.078125 53.582031 C 49.902344 53.757812 49.617188 53.757812 49.4375 53.582031 L 47.402344 51.546875 C 47.222656 51.367188 47.222656 51.082031 47.402344 50.90625 L 49.4375 48.871094 C 49.617188 48.695312 49.902344 48.695312 50.078125 48.871094 L 52.117188 50.90625 C 52.292969 51.082031 52.292969 51.367188 52.117188 51.546875 Z M 48.363281 51.226562 L 49.757812 52.621094 L 51.15625 51.226562 L 49.757812 49.832031 Z M 49.757812 49.832031 L 48.363281 51.226562 L 49.757812 52.621094 L 51.15625 51.226562 Z M 49.757812 49.832031 L 48.363281 51.226562 L 49.757812 52.621094 L 51.15625 51.226562 Z M 49.757812 49.832031 "/>
<path style=" stroke:none;fill-rule:nonzero;fill:rgb(100%,100%,100%);fill-opacity:1;" d="M 45.449219 44.859375 C 45.261719 44.441406 44.0625 44.453125 43.882812 44.859375 L 42.59375 47.726562 L 44.613281 50.589844 L 46.46875 47.132812 Z M 45.449219 44.859375 "/>
<path style=" stroke:none;fill-rule:nonzero;fill:rgb(100%,100%,100%);fill-opacity:1;" d="M 55.628906 44.851562 C 55.4375 44.429688 54.242188 44.464844 54.0625 44.867188 L 53.046875 47.128906 L 54.902344 50.589844 L 56.917969 47.730469 Z M 55.628906 44.851562 "/>
<g clip-path="url(#clip4)" clip-rule="nonzero">
<path style=" stroke:none;fill-rule:nonzero;fill:rgb(100%,100%,100%);fill-opacity:1;" d="M 39.570312 45.574219 C 38.824219 45.574219 38.214844 44.964844 38.214844 44.21875 C 38.214844 43.46875 38.824219 42.863281 39.570312 42.863281 C 40.320312 42.863281 40.929688 43.46875 40.929688 44.21875 C 40.929688 44.964844 40.320312 45.574219 39.570312 45.574219 Z M 39.570312 45.574219 "/>
</g>
<path style=" stroke:none;fill-rule:nonzero;fill:rgb(100%,100%,100%);fill-opacity:1;" d="M 44.664062 45.574219 C 43.914062 45.574219 43.304688 44.964844 43.304688 44.21875 C 43.304688 43.46875 43.914062 42.863281 44.664062 42.863281 C 45.414062 42.863281 46.023438 43.46875 46.023438 44.21875 C 46.023438 44.964844 45.414062 45.574219 44.664062 45.574219 Z M 44.664062 45.574219 "/>
<g clip-path="url(#clip5)" clip-rule="nonzero">
<path style=" stroke:none;fill-rule:nonzero;fill:rgb(100%,100%,100%);fill-opacity:1;" d="M 49.757812 43.3125 C 49.007812 43.3125 48.398438 42.707031 48.398438 41.957031 C 48.398438 41.210938 49.007812 40.601562 49.757812 40.601562 C 50.507812 40.601562 51.117188 41.210938 51.117188 41.957031 C 51.117188 42.707031 50.507812 43.3125 49.757812 43.3125 Z M 49.757812 43.3125 "/>
</g>
<path style=" stroke:none;fill-rule:nonzero;fill:rgb(100%,100%,100%);fill-opacity:1;" d="M 54.828125 45.574219 C 54.082031 45.574219 53.472656 44.964844 53.472656 44.21875 C 53.472656 43.46875 54.082031 42.863281 54.828125 42.863281 C 55.578125 42.863281 56.1875 43.46875 56.1875 44.21875 C 56.1875 44.964844 55.578125 45.574219 54.828125 45.574219 Z M 54.828125 45.574219 "/>
<g clip-path="url(#clip6)" clip-rule="nonzero">
<path style=" stroke:none;fill-rule:nonzero;fill:rgb(100%,100%,100%);fill-opacity:1;" d="M 59.945312 45.574219 C 59.195312 45.574219 58.585938 44.964844 58.585938 44.21875 C 58.585938 43.46875 59.195312 42.863281 59.945312 42.863281 C 60.695312 42.863281 61.304688 43.46875 61.304688 44.21875 C 61.304688 44.964844 60.695312 45.574219 59.945312 45.574219 Z M 59.945312 45.574219 "/>
</g>
<g clip-path="url(#clip7)" clip-rule="nonzero">
<path style=" stroke:none;fill-rule:nonzero;fill:rgb(100%,100%,100%);fill-opacity:1;" d="M 59.039062 59.136719 L 40.476562 59.136719 C 40.226562 59.136719 40.023438 58.933594 40.023438 58.683594 L 40.023438 55.972656 C 40.023438 55.722656 40.226562 55.519531 40.476562 55.519531 L 59.039062 55.519531 C 59.289062 55.519531 59.492188 55.722656 59.492188 55.972656 L 59.492188 58.683594 C 59.492188 58.933594 59.289062 59.136719 59.039062 59.136719 Z M 59.039062 59.136719 "/>
</g>
</g>
</svg>
